<svg width="278" height="282" viewBox="0 0 278 282" fill="none" xmlns="http://www.w3.org/2000/svg">
<path d="M262.333 282H61.9166C53.4374 282 46.4999 274.95 46.4999 266.333V62.6666C46.4999 54.0499 53.4374 46.9999 61.9166 46.9999H262.333C270.812 46.9999 277.75 54.0499 277.75 62.6666V266.333C277.75 274.95 270.812 282 262.333 282Z" fill="url(#paint0_linear_1_41)"/>
<path opacity="0.05" d="M246.916 46.9999H46.4999V250.666H218.542C234.213 250.666 246.916 237.757 246.916 221.832V46.9999Z" fill="black"/>
<path opacity="0.07" d="M239.208 46.9999H46.4999V242.833H217.324C229.411 242.833 239.208 232.877 239.208 220.594V46.9999Z" fill="black"/>
<path d="M216.083 235H15.6666C7.18746 235 0.249969 227.95 0.249969 219.333V15.6666C0.249969 7.04996 7.18746 -3.05176e-05 15.6666 -3.05176e-05H216.083C224.562 -3.05176e-05 231.5 7.04996 231.5 15.6666V219.333C231.5 227.95 224.562 235 216.083 235Z" fill="url(#paint1_linear_1_41)"/>
<path d="M95.0084 170.038L48.7585 123.038C45.7445 119.975 45.7445 115.017 48.7585 111.962L59.6581 100.885C62.672 97.8226 67.5514 97.8226 70.5576 100.885L100.458 131.271L168.9 61.7188C171.914 58.6559 176.794 58.6559 179.8 61.7188L190.7 72.7951C193.714 75.8579 193.714 80.8164 190.7 83.8714L105.908 170.038C102.902 173.101 98.0147 173.101 95.0084 170.038Z" fill="url(#paint2_linear_1_41)"/>
<defs>
<linearGradient id="paint0_linear_1_41" x1="162.125" y1="47.7911" x2="162.125" y2="282.25" gradientUnits="userSpaceOnUse">
<stop stop-color="#7972C6"/>
<stop offset="1" stop-color="#7972C6"/>
</linearGradient>
<linearGradient id="paint1_linear_1_41" x1="115.875" y1="0.791136" x2="115.875" y2="235.25" gradientUnits="userSpaceOnUse">
<stop stop-color="#7972C6"/>
<stop offset="1" stop-color="#7972C6"/>
</linearGradient>
<linearGradient id="paint2_linear_1_41" x1="46.4999" y1="115.878" x2="192.958" y2="115.878" gradientUnits="userSpaceOnUse">
<stop offset="0.824" stop-color="white"/>
<stop offset="0.931" stop-color="white"/>
<stop offset="1" stop-color="white"/>
</linearGradient>
</defs>
</svg>
