<svg width="111" height="82" viewBox="0 0 111 82" fill="none" xmlns="http://www.w3.org/2000/svg">
<path d="M54.6576 0.00088501C48.1491 0.00088501 42.8538 5.18182 42.8538 11.5507C42.8538 17.9191 48.1491 23.1005 54.6576 23.1005C61.166 23.1005 66.4614 17.9191 66.4614 11.5507C66.4614 5.18182 61.166 0.00088501 54.6576 0.00088501ZM54.6576 5.60125C58.0154 5.60125 60.7379 8.26464 60.7379 11.5507C60.7379 14.8363 58.0154 17.4997 54.6576 17.4997C51.2997 17.4997 48.5773 14.8363 48.5773 11.5507C48.5773 8.26464 51.2997 5.60125 54.6576 5.60125Z" fill="#3B31A8"/>
<path d="M29.0846 14.3415C27.9661 16.397 25.6496 17.7359 23.0502 17.4655C20.1063 17.16 17.7775 14.7267 17.6413 11.8332C17.4804 8.41984 20.261 5.60322 23.714 5.60322C25.5313 5.60322 27.1622 6.38376 28.276 7.62217C29.0406 8.47262 30.2456 8.799 31.3268 8.39392C31.4204 8.35873 31.5141 8.32355 31.6078 8.28836C33.3404 7.63884 33.9328 5.50322 32.7372 4.11528C30.2929 1.27829 26.4804 -0.394836 22.3092 0.0801564C16.9136 0.694036 12.5825 4.95554 11.9826 10.2383C11.1934 17.1891 16.7608 23.0992 23.714 23.0992C28.2282 23.0992 32.1595 20.6062 34.1419 16.9521C35.126 15.1383 33.7317 12.9517 31.6333 12.936C31.6125 12.936 31.5922 12.9355 31.5718 12.9355C30.5428 12.9276 29.5681 13.4531 29.0846 14.3415Z" fill="#7972C6"/>
<path d="M39.0691 52.4585L27.4068 63.8699C27.2677 64.006 27.1153 64.1254 26.954 64.2277C26.8972 64.2661 26.8409 64.2958 26.7842 64.3259C26.7539 64.3472 26.7189 64.3638 26.6886 64.3768C26.6361 64.4069 26.584 64.4277 26.5315 64.449C26.488 64.4708 26.4444 64.4874 26.3967 64.5046C26.3791 64.5134 26.3574 64.5175 26.3399 64.5259C26.3399 64.5259 26.3224 64.53 26.2964 64.5388C26.2836 64.543 26.2703 64.5472 26.2528 64.5513C26.2093 64.5685 26.1615 64.5814 26.118 64.5897C26.1005 64.5944 26.0787 64.5985 26.0569 64.6027C26.0267 64.611 25.9916 64.6152 25.9566 64.624C25.8786 64.6453 25.8 64.6583 25.7215 64.6624C25.678 64.6666 25.6344 64.6708 25.5909 64.6749C25.5256 64.6791 25.4646 64.6837 25.3993 64.6837H25.3908C25.0118 64.6837 24.6285 64.6069 24.2756 64.4536C23.9534 64.3212 23.6529 64.1254 23.3918 63.8699L16.8771 57.4991L11.7252 52.4585C10.619 51.3719 10.619 49.6122 11.7252 48.5298L23.3918 37.1143C23.9449 36.5731 24.6721 36.3004 25.3993 36.3004C26.1265 36.3004 26.8494 36.5731 27.4068 37.1143L39.0691 48.5298C40.0665 49.5011 40.1664 51.0182 39.3653 52.1048C39.2825 52.2284 39.1822 52.3478 39.0691 52.4585ZM46.777 40.9874L35.1151 29.5718C32.5195 27.0325 29.0661 25.6348 25.3993 25.6348C21.7282 25.6348 18.279 27.0325 15.6839 29.5718L4.01729 40.9874C-1.3391 46.2289 -1.3391 54.7594 4.01729 60.0005L11.0675 66.8953L15.6839 71.4119C18.279 73.9516 21.7282 75.3493 25.3993 75.3493C25.5866 75.3493 25.7697 75.3451 25.9524 75.3363C29.4143 75.2044 32.6501 73.8239 35.1151 71.4119L46.777 60.0005C47.2256 59.5658 47.6306 59.1056 48.001 58.6241C52.0946 53.3617 51.6853 45.7942 46.777 40.9874Z" fill="#7972C6"/>
<path d="M38.6442 53.0291L27.4763 63.7684C27.3468 63.907 27.2004 64.0142 27.0411 64.1114C26.9794 64.1371 26.9306 64.1728 26.8689 64.1986C26.838 64.2114 26.8072 64.2243 26.7763 64.2372C26.7275 64.2729 26.6748 64.2872 26.622 64.3015C26.5822 64.3258 26.5294 64.3401 26.4986 64.353C26.4767 64.3544 26.4458 64.3673 26.4369 64.3787L26.3493 64.3845C26.3095 64.4088 26.2567 64.4231 26.213 64.426C26.1911 64.4274 26.1692 64.4288 26.1473 64.4303C26.1164 64.4431 26.0816 64.4346 26.0508 64.4475C25.9761 64.4632 25.8975 64.4575 25.8229 64.4733C25.7791 64.4762 25.7224 64.469 25.6786 64.4719L25.4906 64.4735C25.0977 64.4451 24.7058 64.3625 24.329 64.1813C24.0038 64.0401 23.6977 63.8217 23.4145 63.5477L16.4464 56.8191C14.2932 60.0391 12.4884 63.1062 11.0958 65.886L16.03 70.6562C18.8061 73.3354 22.3776 74.9216 26.0942 75.1325C26.2733 75.1424 26.4613 75.1409 26.6494 75.1394C30.1413 75.2133 33.3434 74.0164 35.7143 71.7359L46.8822 60.9966C47.3055 60.5894 47.6901 60.1522 48.036 59.685L41.3083 53.1791L38.9262 52.6962C38.8584 52.8091 38.7558 52.9134 38.6442 53.0291Z" fill="#7972C6"/>
<path d="M76.7508 40.985L65.0846 29.5741C62.489 27.0343 59.0403 25.6353 55.3693 25.6353C51.6982 25.6353 48.249 27.0343 45.6539 29.5741L40.386 34.7324L46.7761 40.985C47.2247 41.4193 47.6302 41.879 48.0016 42.3591L53.3627 37.1175C53.9177 36.5745 54.6435 36.3027 55.3693 36.3027C56.0946 36.3027 56.8246 36.5745 57.3796 37.1175L69.0415 48.5284C70.1515 49.6141 70.1515 51.3728 69.0415 52.4585L57.3796 63.8699C56.8246 64.4129 56.0946 64.6842 55.3693 64.6842C54.6435 64.6842 53.9177 64.4129 53.3627 63.8699L48.0058 58.6278C48.0016 58.6278 48.0016 58.6236 48.0016 58.6236L41.6966 52.4585C41.1245 51.8951 40.8473 51.1515 40.8728 50.4164C40.3689 49.8942 39.857 49.3719 39.3574 48.8627C39.2722 48.7456 39.1738 48.6326 39.0673 48.5284L37.6243 47.1206C37.5732 47.0706 37.5221 47.0164 37.4705 46.9664C34.837 44.3433 32.7666 42.3591 32.7666 42.3591H32.7623C30.9483 44.6854 29.9666 47.5173 29.9666 50.4914C29.9666 53.4696 30.9483 56.2973 32.7666 58.6236C33.138 59.1042 33.5477 59.5634 33.9915 59.9977L42.7124 68.5309L45.6539 71.4128C48.249 73.9526 51.6982 75.3516 55.3693 75.3516C59.0403 75.3516 62.489 73.9526 65.0846 71.4128L76.7508 59.9977C82.1081 54.7561 82.1081 46.2271 76.7508 40.985Z" fill="#3B31A8"/>
<path d="M106.983 40.9832L95.3203 29.576C93.9312 28.2167 92.2984 27.1816 90.5128 26.5209C88.9666 25.9371 87.3078 25.6348 85.605 25.6348C81.9339 25.6348 78.4847 27.0367 75.8891 29.576L70.4892 34.8555L76.7516 40.9832C77.2437 41.4647 77.6922 41.9758 78.093 42.5045L83.5974 37.1184C84.1505 36.5731 84.8777 36.3046 85.605 36.3046C86.3279 36.3046 87.0551 36.5731 87.6125 37.1184L99.2748 48.5294C100.381 49.6164 100.381 51.3719 99.2748 52.4585L87.6125 63.8694C87.0551 64.4106 86.3279 64.6837 85.605 64.6837C84.8777 64.6837 84.1505 64.4106 83.5974 63.8694L78.6546 59.0375C78.6546 59.0334 78.6503 59.0333 78.6503 59.0292L78.0882 58.4834L71.9308 52.4585C71.4255 51.9599 71.1468 51.3205 71.1076 50.677C70.5242 50.0766 69.9361 49.484 69.3612 48.909C69.2742 48.7766 69.1653 48.6488 69.0433 48.5294L66.1042 45.6576L65.5553 45.1164L65.0415 44.6137C64.0659 43.6507 63.3387 42.9433 63.0382 42.6577L62.8859 42.5045H62.8811C59.3104 47.234 59.3146 53.7538 62.8859 58.4834C63.2862 59.0121 63.7304 59.519 64.2225 59.9963L75.8891 71.4118C78.4847 73.9516 81.9339 75.3535 85.605 75.3535C89.276 75.3535 92.7252 73.9516 95.3203 71.4118L106.983 59.9963C112.339 54.7552 112.339 46.2285 106.983 40.9832Z" fill="#7972C6"/>
<path d="M75.8449 29.5087L70.4906 34.7419L76.8356 40.949C77.3322 41.4315 77.7909 41.9528 78.201 42.4843L83.6593 37.1445C84.2035 36.6062 84.9335 36.3435 85.6631 36.349C85.6631 36.349 95.867 31.7754 90.4733 26.5961C88.9202 25.9971 87.2496 25.6773 85.5454 25.6597C81.8627 25.6182 78.4201 26.9868 75.8449 29.5087Z" fill="#7972C6"/>
<path d="M80.2288 8.75902C81.3473 6.70349 83.6637 5.36462 86.2631 5.63499C89.207 5.94054 91.5358 8.37384 91.672 11.2673C91.8329 14.6807 89.0523 17.4973 85.5993 17.4973C83.782 17.4973 82.1511 16.7168 81.0374 15.4784C80.2728 14.6279 79.0677 14.3015 77.9866 14.7066C77.8929 14.7418 77.7992 14.777 77.7055 14.8122C75.9729 15.4617 75.3805 17.5973 76.5761 18.9852C79.0204 21.8222 82.8329 23.4954 87.0041 23.0204C92.3997 22.4065 96.7308 18.145 97.3308 12.8622C98.12 5.91091 92.5526 0.00128174 85.5993 0.00128174C81.0851 0.00128174 77.1538 2.4943 75.1714 6.14841C74.1873 7.96227 75.5816 10.1488 77.68 10.1645C77.7008 10.1645 77.7211 10.165 77.7415 10.165C78.7706 10.1729 79.7452 9.64743 80.2288 8.75902Z" fill="#7972C6"/>
</svg>
